<svg width="24" height="24" viewBox="0 0 24 24" fill="none" xmlns="http://www.w3.org/2000/svg">
    <path d="M3 21V3C3 2.448 3.448 2 4 2H12V6C12 7.104 12.896 8 14 8H18V21C18 21.552 17.552 22 17 22H4C3.448 22 3 21.552 3 21Z" fill="#28C76F"/>
    <path d="M14 2H4C2.897 2 2 2.897 2 4V20C2 21.103 2.897 22 4 22H20C21.103 22 22 21.103 22 20V8.586C22 8.211 21.842 7.852 21.561 7.561L16.439 2.439C16.148 2.158 15.789 2 15.414 2H14ZM12.707 8L14 6.707V8H12.707Z" fill="#28C76F"/>
    <path d="M9.414 14L12 11.414L14.586 14L16 12.586L12 8.586L8 12.586L9.414 14Z" fill="#28C76F"/>
</svg>
